<mxfile host="app.diagrams.net" agent="Mozilla/5.0 (Windows NT 10.0; Win64; x64) AppleWebKit/537.36 (KHTML, like Gecko) Chrome/131.0.0.0 Safari/537.36" version="25.0.3">
  <diagram name="Page-1" id="gYPdV5KYoYjTxZCbX4Au">
    <mxGraphModel dx="3703" dy="2223" grid="1" gridSize="10" guides="1" tooltips="1" connect="1" arrows="1" fold="1" page="1" pageScale="1" pageWidth="1654" pageHeight="1169" math="0" shadow="0">
      <root>
        <mxCell id="0" />
        <mxCell id="1" parent="0" />
        <mxCell id="qkAYrCaB-duEuZqhV6VB-1" value="&lt;font&gt;0123456789012345678901234567890123456789012345678901234567890123456789012345678901234567890123456789012345678901234567890123456789012&lt;/font&gt;" style="text;html=1;align=left;verticalAlign=middle;resizable=0;points=[];autosize=1;strokeColor=none;fillColor=default;fontFamily=Lucida Console;fontSize=14;" parent="1" vertex="1">
          <mxGeometry x="10" y="-20" width="1150" height="30" as="geometry" />
        </mxCell>
        <mxCell id="qkAYrCaB-duEuZqhV6VB-2" value="&lt;font&gt;0&amp;nbsp; &amp;nbsp; &amp;nbsp; &amp;nbsp; &amp;nbsp;10&amp;nbsp; &amp;nbsp; &amp;nbsp; &amp;nbsp; 20&amp;nbsp; &amp;nbsp; &amp;nbsp; &amp;nbsp; 30&amp;nbsp; &amp;nbsp; &amp;nbsp; &amp;nbsp; 40&amp;nbsp; &amp;nbsp; &amp;nbsp; &amp;nbsp; 50&amp;nbsp; &amp;nbsp; &amp;nbsp; &amp;nbsp; 60&amp;nbsp; &amp;nbsp; &amp;nbsp; &amp;nbsp; 70&amp;nbsp; &amp;nbsp; &amp;nbsp; &amp;nbsp; 80&amp;nbsp; &amp;nbsp; &amp;nbsp; &amp;nbsp; 90&amp;nbsp; &amp;nbsp; &amp;nbsp; &amp;nbsp; 100&amp;nbsp; &amp;nbsp; &amp;nbsp; &amp;nbsp;110&amp;nbsp; &amp;nbsp; &amp;nbsp; &amp;nbsp;120&amp;nbsp; &amp;nbsp; &amp;nbsp; &amp;nbsp; &amp;nbsp;132&amp;nbsp;&lt;/font&gt;" style="text;html=1;align=left;verticalAlign=middle;resizable=0;points=[];autosize=1;strokeColor=none;fillColor=default;fontFamily=Lucida Console;fontSize=14;" parent="1" vertex="1">
          <mxGeometry x="10" y="-39" width="1170" height="30" as="geometry" />
        </mxCell>
        <mxCell id="0JCC86L8l436ZXqpCiF8-2" value="&lt;div&gt;&lt;br&gt;&lt;/div&gt;&lt;div&gt;&lt;br&gt;&lt;/div&gt;&lt;div&gt;&lt;br&gt;&lt;/div&gt;&lt;div&gt;&lt;br&gt;&lt;/div&gt;&lt;div&gt;&lt;br&gt;&lt;/div&gt;&lt;div&gt;&lt;br&gt;&lt;/div&gt;&lt;div&gt;&lt;br&gt;&lt;/div&gt;&lt;div&gt;&lt;br&gt;&lt;/div&gt;&lt;div&gt;&lt;br&gt;&lt;/div&gt;&lt;br&gt;&lt;div&gt;10&lt;/div&gt;&lt;div&gt;&lt;br&gt;&lt;/div&gt;&lt;div&gt;&lt;br&gt;&lt;/div&gt;&lt;div&gt;&lt;br&gt;&lt;/div&gt;&lt;div&gt;&lt;br&gt;&lt;/div&gt;&lt;div&gt;&lt;br&gt;&lt;/div&gt;&lt;div&gt;&lt;br&gt;&lt;/div&gt;&lt;div&gt;&lt;br&gt;&lt;/div&gt;&lt;div&gt;&lt;br&gt;&lt;/div&gt;&lt;div&gt;&lt;br&gt;&lt;/div&gt;&lt;div&gt;20&lt;/div&gt;&lt;div&gt;&lt;br&gt;&lt;/div&gt;&lt;div&gt;&lt;br&gt;&lt;/div&gt;&lt;div&gt;&lt;br&gt;&lt;/div&gt;&lt;div&gt;&lt;br&gt;&lt;/div&gt;&lt;div&gt;&lt;br&gt;&lt;/div&gt;&lt;div&gt;&lt;br&gt;&lt;/div&gt;&lt;div&gt;&lt;br&gt;&lt;/div&gt;&lt;div&gt;&lt;br&gt;&lt;/div&gt;&lt;div&gt;&lt;br&gt;&lt;/div&gt;&lt;div&gt;30&lt;/div&gt;&lt;div&gt;&lt;br&gt;&lt;/div&gt;&lt;div&gt;&lt;br&gt;&lt;/div&gt;&lt;div&gt;&lt;br&gt;&lt;/div&gt;&lt;div&gt;&lt;br&gt;&lt;/div&gt;&lt;div&gt;&lt;br&gt;&lt;/div&gt;&lt;div&gt;&lt;br&gt;&lt;/div&gt;&lt;div&gt;&lt;br&gt;&lt;/div&gt;&lt;div&gt;&lt;br&gt;&lt;/div&gt;&lt;div&gt;&lt;br&gt;&lt;/div&gt;&lt;div&gt;40&lt;/div&gt;&lt;div&gt;&lt;br&gt;&lt;/div&gt;&lt;div&gt;&lt;br&gt;&lt;/div&gt;&lt;div&gt;43&lt;/div&gt;&lt;div&gt;&lt;br&gt;&lt;/div&gt;&lt;div&gt;&lt;br&gt;&lt;/div&gt;&lt;div&gt;&lt;br&gt;&lt;/div&gt;" style="text;whiteSpace=wrap;html=1;align=right;fontFamily=Lucida Console;fontSize=14;" parent="1" vertex="1">
          <mxGeometry x="-18" y="-19" width="24" height="240" as="geometry" />
        </mxCell>
        <mxCell id="qkAYrCaB-duEuZqhV6VB-3" value="0&lt;div&gt;1&lt;/div&gt;&lt;div&gt;2&lt;/div&gt;&lt;div&gt;3&lt;/div&gt;&lt;div&gt;4&lt;/div&gt;&lt;div&gt;5&lt;/div&gt;&lt;div&gt;6&lt;/div&gt;&lt;div&gt;7&lt;/div&gt;&lt;div&gt;8&lt;/div&gt;&lt;div&gt;9&lt;/div&gt;&lt;div&gt;0&lt;/div&gt;&lt;div&gt;1&lt;/div&gt;&lt;div&gt;2&lt;/div&gt;&lt;div&gt;3&lt;/div&gt;&lt;div&gt;4&lt;/div&gt;&lt;div&gt;5&lt;/div&gt;&lt;div&gt;6&lt;/div&gt;&lt;div&gt;7&lt;/div&gt;&lt;div&gt;8&lt;/div&gt;&lt;div&gt;9&lt;/div&gt;&lt;div&gt;0&lt;/div&gt;&lt;div&gt;1&lt;/div&gt;&lt;div&gt;2&lt;/div&gt;&lt;div&gt;3&lt;/div&gt;&lt;div&gt;4&lt;/div&gt;&lt;div&gt;5&lt;/div&gt;&lt;div&gt;6&lt;/div&gt;&lt;div&gt;7&lt;/div&gt;&lt;div&gt;8&lt;/div&gt;&lt;div&gt;9&lt;/div&gt;&lt;div&gt;0&lt;/div&gt;&lt;div&gt;1&lt;/div&gt;&lt;div&gt;2&lt;/div&gt;&lt;div&gt;3&lt;/div&gt;&lt;div&gt;4&lt;/div&gt;&lt;div&gt;5&lt;/div&gt;&lt;div&gt;6&lt;/div&gt;&lt;div&gt;7&lt;/div&gt;&lt;div&gt;8&lt;/div&gt;&lt;div&gt;9&lt;/div&gt;&lt;div&gt;0&lt;/div&gt;&lt;div&gt;1&lt;/div&gt;&lt;div&gt;2&lt;/div&gt;&lt;div&gt;3&lt;/div&gt;&lt;div&gt;&lt;br&gt;&lt;/div&gt;&lt;div&gt;&lt;br&gt;&lt;/div&gt;" style="text;whiteSpace=wrap;html=1;fontFamily=Lucida Console;fontSize=14;" parent="1" vertex="1">
          <mxGeometry x="10" y="-19" width="24" height="240" as="geometry" />
        </mxCell>
        <mxCell id="LSzqvkUK99cfRbp6Mw0R-84" value="&lt;div&gt;&lt;font color=&quot;#f8cecc&quot;&gt;BLK&lt;/font&gt;&lt;/div&gt;&lt;div&gt;&lt;font color=&quot;#ea6b66&quot;&gt;RED&lt;/font&gt;&lt;/div&gt;&lt;div&gt;&lt;span style=&quot;color: rgb(0, 204, 0);&quot;&gt;GRN&lt;/span&gt;&lt;/div&gt;&lt;div&gt;&lt;font color=&quot;#495411&quot;&gt;YEL&lt;/font&gt;&lt;/div&gt;&lt;div&gt;&lt;font color=&quot;#3399ff&quot;&gt;BLU&lt;/font&gt;&lt;/div&gt;&lt;div&gt;&lt;font color=&quot;#ff33ff&quot;&gt;MAG&lt;/font&gt;&lt;/div&gt;&lt;div&gt;&lt;font color=&quot;#004c99&quot;&gt;CYN&lt;/font&gt;&lt;/div&gt;&lt;div&gt;WHT&lt;/div&gt;&lt;div&gt;&lt;br&gt;&lt;/div&gt;" style="text;html=1;align=left;verticalAlign=middle;resizable=0;points=[];autosize=1;strokeColor=none;fillColor=default;fontFamily=Lucida Console;fontSize=14;" parent="1" vertex="1">
          <mxGeometry x="-290" y="505" width="50" height="160" as="geometry" />
        </mxCell>
        <mxCell id="LSzqvkUK99cfRbp6Mw0R-85" value="&lt;div&gt;&lt;font color=&quot;#f8cecc&quot;&gt;BLK&lt;/font&gt;&lt;/div&gt;&lt;div&gt;&lt;font color=&quot;#ea6b66&quot;&gt;ERROR&lt;/font&gt;&lt;/div&gt;&lt;div&gt;&lt;span style=&quot;color: rgb(0, 204, 0);&quot;&gt;RUNNING/ALL GOOD&lt;/span&gt;&lt;/div&gt;&lt;div&gt;&lt;font color=&quot;#495411&quot;&gt;WARNING&lt;/font&gt;&lt;/div&gt;&lt;div&gt;&lt;font color=&quot;#3399ff&quot;&gt;NORMAL TEXT&lt;/font&gt;&lt;/div&gt;&lt;div&gt;&lt;font color=&quot;#ff33ff&quot;&gt;HEADINGS&lt;/font&gt;&lt;/div&gt;&lt;div&gt;&lt;span style=&quot;background-color: initial;&quot;&gt;&lt;font color=&quot;#004c99&quot;&gt;SUBHEADINGS&lt;/font&gt;&lt;/span&gt;&lt;/div&gt;&lt;div&gt;&lt;span style=&quot;background-color: initial;&quot;&gt;FRAMES&lt;/span&gt;&lt;/div&gt;&lt;div&gt;&lt;br&gt;&lt;/div&gt;" style="text;html=1;align=left;verticalAlign=middle;resizable=0;points=[];autosize=1;strokeColor=none;fillColor=default;fontFamily=Lucida Console;fontSize=14;" parent="1" vertex="1">
          <mxGeometry x="-190" y="520" width="160" height="160" as="geometry" />
        </mxCell>
        <mxCell id="oLKlljd090616Nfrw5Nb-1" value="" style="swimlane;startSize=0;fontFamily=Lucida Console;fontSize=14;" parent="1" vertex="1">
          <mxGeometry x="20" width="1200" height="720" as="geometry" />
        </mxCell>
        <mxCell id="oLKlljd090616Nfrw5Nb-9" value="&lt;font color=&quot;#3399ff&quot;&gt;&lt;b&gt;M-TEK&lt;/b&gt;&amp;nbsp; &amp;nbsp; &lt;/font&gt;&lt;font color=&quot;#ff33ff&quot;&gt;&lt;b&gt;Radar Rotator Sub-System&amp;nbsp; &lt;/b&gt;&amp;nbsp;&amp;nbsp;&lt;/font&gt;&lt;span style=&quot;color: rgb(51, 153, 255);&quot;&gt;2024-12-01&amp;nbsp; &amp;nbsp; 00:00:00&amp;nbsp; &amp;nbsp;&amp;nbsp;&lt;/span&gt;&lt;font color=&quot;#00cc00&quot;&gt;⏻&lt;/font&gt;&lt;span style=&quot;color: rgb(51, 153, 255);&quot;&gt;&amp;nbsp; &amp;nbsp;&amp;nbsp;&lt;/span&gt;&lt;span style=&quot;color: rgb(51, 153, 255);&quot;&gt;⟲&amp;nbsp; &amp;nbsp; Rate&amp;nbsp; &amp;nbsp;&amp;nbsp;&lt;/span&gt;&lt;span style=&quot;background-color: initial;&quot;&gt;&lt;font style=&quot;&quot; color=&quot;#00cc00&quot;&gt;5.1 rpm&amp;nbsp; &amp;nbsp;&amp;nbsp;&lt;/font&gt;&lt;/span&gt;&lt;span style=&quot;background-color: initial;&quot;&gt;&lt;font color=&quot;#ea6b66&quot;&gt;✖&lt;/font&gt;&lt;/span&gt;&lt;font color=&quot;#3399ff&quot;&gt;IBIT&amp;nbsp; &amp;nbsp; &amp;nbsp; &amp;nbsp; &amp;nbsp; &amp;nbsp; &amp;nbsp; &amp;nbsp; &amp;nbsp; &amp;nbsp; &amp;nbsp; &amp;nbsp;&lt;span style=&quot;background-color: initial;&quot;&gt;&amp;nbsp; &amp;nbsp; UART&lt;/span&gt;&lt;/font&gt;" style="text;html=1;align=left;verticalAlign=middle;resizable=0;points=[];autosize=1;strokeColor=none;fillColor=default;labelBackgroundColor=none;fontFamily=Lucida Console;fontSize=14;" parent="oLKlljd090616Nfrw5Nb-1" vertex="1">
          <mxGeometry y="4" width="1120" height="30" as="geometry" />
        </mxCell>
        <mxCell id="oLKlljd090616Nfrw5Nb-10" value="&lt;font color=&quot;#3399ff&quot;&gt;Message line:...&lt;/font&gt;" style="text;html=1;align=left;verticalAlign=middle;resizable=0;points=[];autosize=1;strokeColor=none;fillColor=default;fontFamily=Lucida Console;fontSize=14;" parent="oLKlljd090616Nfrw5Nb-1" vertex="1">
          <mxGeometry y="30" width="160" height="30" as="geometry" />
        </mxCell>
        <mxCell id="Y0vUoYvXCPpR4QLky-6E-8" value="&lt;div&gt;&lt;font color=&quot;#3399ff&quot;&gt;____&amp;nbsp; ____&amp;nbsp; ____ ____&lt;/font&gt;&lt;/div&gt;&lt;div&gt;&lt;font color=&quot;#3399ff&quot;&gt;| _ \ | _ \ / ___ / ___|&lt;/font&gt;&lt;/div&gt;&lt;div&gt;&lt;font color=&quot;#3399ff&quot;&gt;| |_) | |_) \___ \___ \&lt;/font&gt;&lt;/div&gt;&lt;div&gt;&lt;font color=&quot;#3399ff&quot;&gt;| _ &amp;lt; | _ &amp;lt; ___) | __) |&lt;/font&gt;&lt;/div&gt;&lt;div&gt;&lt;font color=&quot;#3399ff&quot;&gt;&amp;nbsp; &amp;nbsp; |_ | \_\_ | \_\____ / ____ /&lt;/font&gt;&lt;/div&gt;&lt;div&gt;&lt;br&gt;&lt;/div&gt;" style="text;html=1;align=left;verticalAlign=middle;resizable=0;points=[];autosize=1;strokeColor=none;fillColor=default;fontFamily=Lucida Console;fontSize=14;" parent="oLKlljd090616Nfrw5Nb-1" vertex="1">
          <mxGeometry x="824" y="617" width="290" height="110" as="geometry" />
        </mxCell>
        <mxCell id="USdj_I0CaCp1iJVfZblM-9" value="&#xa;" style="swimlane;startSize=0;fontFamily=Lucida Console;fontSize=14;" parent="oLKlljd090616Nfrw5Nb-1" vertex="1">
          <mxGeometry x="-10" y="30" width="1120" height="30" as="geometry" />
        </mxCell>
        <mxCell id="USdj_I0CaCp1iJVfZblM-36" value="&#xa;" style="swimlane;startSize=0;fontFamily=Lucida Console;fontSize=14;" parent="oLKlljd090616Nfrw5Nb-1" vertex="1">
          <mxGeometry x="-10" width="1120" height="30" as="geometry" />
        </mxCell>
        <mxCell id="ye5tNXJEMpcOtLvbYLi2-1" value="&#xa;" style="swimlane;startSize=0;fontFamily=Lucida Console;fontSize=14;" vertex="1" parent="oLKlljd090616Nfrw5Nb-1">
          <mxGeometry x="811" y="618.5" width="306" height="101" as="geometry" />
        </mxCell>
        <mxCell id="USdj_I0CaCp1iJVfZblM-37" value="&#xa;" style="swimlane;startSize=0;fontFamily=Lucida Console;fontSize=14;" parent="oLKlljd090616Nfrw5Nb-1" vertex="1">
          <mxGeometry x="380" y="80" width="300" height="80" as="geometry" />
        </mxCell>
        <mxCell id="USdj_I0CaCp1iJVfZblM-40" value="&lt;span style=&quot;color: rgb(51, 153, 255);&quot;&gt;&amp;nbsp; &amp;nbsp; [P]assword&lt;/span&gt;" style="text;html=1;align=left;verticalAlign=middle;resizable=0;points=[];autosize=1;strokeColor=none;fillColor=default;fontFamily=Lucida Console;fontSize=14;" parent="USdj_I0CaCp1iJVfZblM-37" vertex="1">
          <mxGeometry width="140" height="30" as="geometry" />
        </mxCell>
        <mxCell id="ye5tNXJEMpcOtLvbYLi2-7" value="&#xa;" style="swimlane;startSize=0;fontFamily=Lucida Console;fontSize=14;" vertex="1" parent="oLKlljd090616Nfrw5Nb-1">
          <mxGeometry x="380" y="200" width="300" height="80" as="geometry" />
        </mxCell>
        <mxCell id="ye5tNXJEMpcOtLvbYLi2-8" value="&lt;font color=&quot;#3399ff&quot;&gt;&amp;nbsp; &amp;nbsp; Software [V]ersions&lt;/font&gt;" style="text;html=1;align=left;verticalAlign=middle;resizable=0;points=[];autosize=1;strokeColor=none;fillColor=default;fontFamily=Lucida Console;fontSize=14;" vertex="1" parent="ye5tNXJEMpcOtLvbYLi2-7">
          <mxGeometry width="220" height="30" as="geometry" />
        </mxCell>
        <mxCell id="ye5tNXJEMpcOtLvbYLi2-9" value="&#xa;" style="swimlane;startSize=0;fontFamily=Lucida Console;fontSize=14;" vertex="1" parent="1">
          <mxGeometry x="250" y="-860" width="1130" height="220" as="geometry" />
        </mxCell>
        <mxCell id="ye5tNXJEMpcOtLvbYLi2-10" value="&lt;span style=&quot;color: rgb(0, 76, 153);&quot;&gt;Software Versions&lt;/span&gt;" style="text;html=1;align=left;verticalAlign=middle;resizable=0;points=[];autosize=1;strokeColor=none;fillColor=default;fontFamily=Lucida Console;fontSize=14;" vertex="1" parent="ye5tNXJEMpcOtLvbYLi2-9">
          <mxGeometry x="50" y="10" width="170" height="30" as="geometry" />
        </mxCell>
        <mxCell id="ye5tNXJEMpcOtLvbYLi2-11" value="&#xa;" style="swimlane;startSize=0;fontFamily=Lucida Console;fontSize=14;" vertex="1" parent="1">
          <mxGeometry x="270" y="-820" width="350" height="160" as="geometry" />
        </mxCell>
        <mxCell id="ye5tNXJEMpcOtLvbYLi2-12" value="&lt;font color=&quot;#3399ff&quot;&gt;&amp;nbsp; &amp;nbsp; &lt;/font&gt;&lt;font color=&quot;#004c99&quot;&gt;RCU&lt;/font&gt;&lt;div&gt;&lt;font color=&quot;#004c99&quot;&gt;&lt;br&gt;&lt;/font&gt;&lt;div&gt;&lt;font color=&quot;#3399ff&quot;&gt;&amp;nbsp; &amp;nbsp; MCU_TYPE&amp;nbsp; &amp;nbsp; &amp;nbsp; &amp;nbsp; &amp;nbsp; :&amp;nbsp;&lt;/font&gt;&lt;span style=&quot;background-color: initial;&quot;&gt;&lt;font color=&quot;#3399ff&quot;&gt;MKV58F1M0xxx24&lt;/font&gt;&lt;/span&gt;&lt;/div&gt;&lt;/div&gt;&lt;div&gt;&lt;span style=&quot;background-color: initial;&quot;&gt;&lt;font color=&quot;#3399ff&quot;&gt;&amp;nbsp; &amp;nbsp; MCU_MODULE&amp;nbsp; &amp;nbsp; &amp;nbsp; &amp;nbsp; :&amp;nbsp;&lt;/font&gt;&lt;/span&gt;&lt;span style=&quot;background-color: initial;&quot;&gt;&lt;font color=&quot;#3399ff&quot;&gt;XA003-66510&lt;/font&gt;&lt;/span&gt;&lt;/div&gt;&lt;div&gt;&lt;span style=&quot;background-color: initial;&quot;&gt;&lt;font color=&quot;#3399ff&quot;&gt;&amp;nbsp; &amp;nbsp;CONFIG_SW_NUM&amp;nbsp; &amp;nbsp; &amp;nbsp; : FS000-000000-62&lt;/font&gt;&lt;/span&gt;&lt;/div&gt;&lt;div&gt;&lt;span style=&quot;color: rgb(51, 153, 255);&quot;&gt;&amp;nbsp; &amp;nbsp;CONFIG_FW_NUM&amp;nbsp; &amp;nbsp; &amp;nbsp; : FF000-000000-62&lt;/span&gt;&lt;span style=&quot;background-color: initial;&quot;&gt;&lt;font color=&quot;#3399ff&quot;&gt;&lt;/font&gt;&lt;/span&gt;&lt;/div&gt;&lt;div&gt;&lt;font color=&quot;#3399ff&quot;&gt;&amp;nbsp; &amp;nbsp;EXPECTED_CPLD_TYPE : 8&lt;/font&gt;&lt;/div&gt;&lt;div&gt;&lt;span style=&quot;color: rgb(51, 153, 255);&quot;&gt;&lt;br&gt;&lt;/span&gt;&lt;/div&gt;" style="text;html=1;align=left;verticalAlign=middle;resizable=0;points=[];autosize=1;strokeColor=none;fillColor=default;fontFamily=Lucida Console;fontSize=14;" vertex="1" parent="ye5tNXJEMpcOtLvbYLi2-11">
          <mxGeometry y="2" width="350" height="150" as="geometry" />
        </mxCell>
        <mxCell id="ye5tNXJEMpcOtLvbYLi2-13" value="&#xa;" style="swimlane;startSize=0;fontFamily=Lucida Console;fontSize=14;" vertex="1" parent="1">
          <mxGeometry x="640" y="-820" width="350" height="160" as="geometry" />
        </mxCell>
        <mxCell id="ye5tNXJEMpcOtLvbYLi2-14" value="&lt;font color=&quot;#3399ff&quot;&gt;&amp;nbsp; &amp;nbsp; &lt;/font&gt;&lt;font color=&quot;#004c99&quot;&gt;SIU&lt;/font&gt;&lt;div&gt;&lt;font color=&quot;#004c99&quot;&gt;&lt;br&gt;&lt;/font&gt;&lt;div&gt;&lt;font color=&quot;#3399ff&quot;&gt;&amp;nbsp; &amp;nbsp; MCU_TYPE&amp;nbsp; &amp;nbsp; &amp;nbsp; &amp;nbsp; &amp;nbsp; :&amp;nbsp;&lt;/font&gt;&lt;span style=&quot;background-color: initial;&quot;&gt;&lt;font color=&quot;#3399ff&quot;&gt;MKV58F1M0xxx24&lt;/font&gt;&lt;/span&gt;&lt;/div&gt;&lt;/div&gt;&lt;div&gt;&lt;span style=&quot;background-color: initial;&quot;&gt;&lt;font color=&quot;#3399ff&quot;&gt;&amp;nbsp; &amp;nbsp; MCU_MODULE&amp;nbsp; &amp;nbsp; &amp;nbsp; &amp;nbsp; :&amp;nbsp;&lt;/font&gt;&lt;/span&gt;&lt;span style=&quot;background-color: initial;&quot;&gt;&lt;font color=&quot;#3399ff&quot;&gt;XA003-66510&lt;/font&gt;&lt;/span&gt;&lt;/div&gt;&lt;div&gt;&lt;span style=&quot;background-color: initial;&quot;&gt;&lt;font color=&quot;#3399ff&quot;&gt;&amp;nbsp; &amp;nbsp;CONFIG_SW_NUM&amp;nbsp; &amp;nbsp; &amp;nbsp; : FS000-000000-62&lt;/font&gt;&lt;/span&gt;&lt;/div&gt;&lt;div&gt;&lt;span style=&quot;color: rgb(51, 153, 255);&quot;&gt;&amp;nbsp; &amp;nbsp;CONFIG_FW_NUM&amp;nbsp; &amp;nbsp; &amp;nbsp; : FF000-000000-62&lt;/span&gt;&lt;span style=&quot;background-color: initial;&quot;&gt;&lt;font color=&quot;#3399ff&quot;&gt;&lt;/font&gt;&lt;/span&gt;&lt;/div&gt;&lt;div&gt;&lt;font color=&quot;#3399ff&quot;&gt;&amp;nbsp; &amp;nbsp;EXPECTED_CPLD_TYPE : 8&lt;/font&gt;&lt;/div&gt;&lt;div&gt;&lt;span style=&quot;color: rgb(51, 153, 255);&quot;&gt;&lt;br&gt;&lt;/span&gt;&lt;/div&gt;" style="text;html=1;align=left;verticalAlign=middle;resizable=0;points=[];autosize=1;strokeColor=none;fillColor=default;fontFamily=Lucida Console;fontSize=14;" vertex="1" parent="ye5tNXJEMpcOtLvbYLi2-13">
          <mxGeometry y="2" width="350" height="150" as="geometry" />
        </mxCell>
        <mxCell id="ye5tNXJEMpcOtLvbYLi2-15" value="&#xa;" style="swimlane;startSize=0;fontFamily=Lucida Console;fontSize=14;" vertex="1" parent="1">
          <mxGeometry x="1010" y="-820" width="350" height="160" as="geometry" />
        </mxCell>
        <mxCell id="ye5tNXJEMpcOtLvbYLi2-16" value="&lt;font color=&quot;#3399ff&quot;&gt;&amp;nbsp; &amp;nbsp; &lt;/font&gt;&lt;font color=&quot;#004c99&quot;&gt;RBD&lt;/font&gt;&lt;div&gt;&lt;font color=&quot;#004c99&quot;&gt;&lt;br&gt;&lt;/font&gt;&lt;div&gt;&lt;font color=&quot;#3399ff&quot;&gt;&amp;nbsp; &amp;nbsp; MCU_TYPE&amp;nbsp; &amp;nbsp; &amp;nbsp; &amp;nbsp; &amp;nbsp; :&amp;nbsp;&lt;/font&gt;&lt;span style=&quot;background-color: initial;&quot;&gt;&lt;font color=&quot;#3399ff&quot;&gt;MKV58F1M0xxx24&lt;/font&gt;&lt;/span&gt;&lt;/div&gt;&lt;/div&gt;&lt;div&gt;&lt;span style=&quot;background-color: initial;&quot;&gt;&lt;font color=&quot;#3399ff&quot;&gt;&amp;nbsp; &amp;nbsp; MCU_MODULE&amp;nbsp; &amp;nbsp; &amp;nbsp; &amp;nbsp; :&amp;nbsp;&lt;/font&gt;&lt;/span&gt;&lt;span style=&quot;background-color: initial;&quot;&gt;&lt;font color=&quot;#3399ff&quot;&gt;XA003-66510&lt;/font&gt;&lt;/span&gt;&lt;/div&gt;&lt;div&gt;&lt;span style=&quot;background-color: initial;&quot;&gt;&lt;font color=&quot;#3399ff&quot;&gt;&amp;nbsp; &amp;nbsp;CONFIG_SW_NUM&amp;nbsp; &amp;nbsp; &amp;nbsp; : FS000-000000-62&lt;/font&gt;&lt;/span&gt;&lt;/div&gt;&lt;div&gt;&lt;span style=&quot;color: rgb(51, 153, 255);&quot;&gt;&amp;nbsp; &amp;nbsp;CONFIG_FW_NUM&amp;nbsp; &amp;nbsp; &amp;nbsp; : FF000-000000-62&lt;/span&gt;&lt;span style=&quot;background-color: initial;&quot;&gt;&lt;font color=&quot;#3399ff&quot;&gt;&lt;/font&gt;&lt;/span&gt;&lt;/div&gt;&lt;div&gt;&lt;font color=&quot;#3399ff&quot;&gt;&amp;nbsp; &amp;nbsp;EXPECTED_CPLD_TYPE : 8&lt;/font&gt;&lt;/div&gt;&lt;div&gt;&lt;span style=&quot;color: rgb(51, 153, 255);&quot;&gt;&lt;br&gt;&lt;/span&gt;&lt;/div&gt;" style="text;html=1;align=left;verticalAlign=middle;resizable=0;points=[];autosize=1;strokeColor=none;fillColor=default;fontFamily=Lucida Console;fontSize=14;" vertex="1" parent="ye5tNXJEMpcOtLvbYLi2-15">
          <mxGeometry y="2" width="350" height="150" as="geometry" />
        </mxCell>
      </root>
    </mxGraphModel>
  </diagram>
</mxfile>
